<svg width="55" height="56" viewBox="0 0 55 56" fill="none" xmlns="http://www.w3.org/2000/svg">
<path d="M27.6713 0.143333C28.5172 0.585472 29.2691 1.09746 30.051 1.64348C30.9715 2.24797 31.6049 2.42178 32.7061 2.38099C33.3364 2.18256 33.9514 1.95344 34.5711 1.72434C36.0128 1.32107 37.272 1.6153 38.6149 2.20618C39.409 2.9312 39.8416 3.56756 40.398 4.4788C41.1555 5.71544 41.6916 6.53287 43.0552 7.13602C43.8339 7.29337 44.6144 7.41902 45.3989 7.54356C46.8199 7.83792 47.5639 8.49944 48.4396 9.61842C48.975 10.6259 49.0621 11.6228 49.1913 12.7476C49.4041 14.4662 49.5816 15.2312 50.887 16.3664C51.2703 16.6479 51.655 16.9275 52.0408 17.2055C53.0478 17.9427 53.5863 18.4959 53.9638 19.7229C54.1786 21.5732 53.8683 22.7738 53.1247 24.4779C52.8047 26.2811 53.2614 27.3913 54.19 28.9204C54.789 29.985 54.9139 30.9078 54.6784 32.1021C54.2708 33.5216 53.7482 34.4462 52.5653 35.3865C52.3807 35.3865 52.1961 35.3865 52.0059 35.3865C51.227 36.8887 50.825 37.9694 50.9045 39.687C50.9311 41.6468 50.6591 42.6502 49.506 44.2497C48.4288 45.0631 47.3579 45.3526 46.0796 45.752C45.1121 46.0759 44.5564 46.348 43.8944 47.1342C43.58 47.8329 43.3083 48.5398 43.0421 49.2582C42.553 50.4931 41.9554 51.135 40.8525 51.8542C39.8064 52.2646 38.8805 52.1362 37.7758 52.0291C35.7415 51.8394 34.2871 51.9334 32.6449 53.2113C32.2584 53.5515 31.8794 53.9006 31.5108 54.2602C30.5558 55.1028 29.4187 55.1065 28.2002 55.1048C26.8927 54.8804 25.9152 54.1653 24.8076 53.4647C23.8111 52.8756 23.2278 52.7053 22.0772 52.7283C21.8291 52.8149 21.5811 52.9014 21.3255 52.9906C19.5926 53.5464 17.7577 53.5999 16.081 52.8682C15.3198 52.1256 14.8204 51.3943 14.288 50.4808C13.6033 49.3133 12.981 48.4968 11.728 47.9733C10.8171 47.7616 9.90276 47.584 8.98447 47.4073C7.64198 46.9965 6.94328 46.4154 6.2016 45.2287C5.82221 44.2551 5.7028 43.4178 5.60941 42.3792C5.38545 40.6597 5.20262 39.879 3.8962 38.743C3.5129 38.4615 3.12823 38.1819 2.74241 37.9038C1.73541 37.1666 1.19693 36.6134 0.819418 35.3865C0.604619 33.5361 0.914949 32.3355 1.65854 30.6314C1.97852 28.8282 1.52186 27.7181 0.593248 26.1889C-0.11832 24.9244 -0.121217 23.7858 0.22504 22.415C0.732216 21.0197 1.66707 20.1727 2.76098 19.2028C3.63035 18.2988 3.88495 17.592 3.92133 16.3423C3.90727 16.0387 3.89321 15.7351 3.87872 15.4224C3.85417 13.4451 4.04114 12.3786 5.39963 10.8771C6.51662 10.014 7.8771 9.64065 9.20409 9.2076C10.4133 8.64519 10.9525 7.91848 11.4734 6.70662C11.5517 6.47334 11.6299 6.24006 11.7105 5.99971C12.253 4.56798 12.8938 3.96129 14.2095 3.19485C14.8932 2.90262 15.3394 2.89099 16.0788 2.92511C16.32 2.93196 16.5612 2.93881 16.8097 2.94587C17.3124 2.96546 17.815 2.98729 18.3175 3.01143C19.9243 3.05213 20.7994 2.89709 22.0772 1.82158C22.2427 1.68781 22.4082 1.55404 22.5787 1.41622C22.7074 1.30192 22.8361 1.18763 22.9688 1.06986C24.3697 -0.0820092 25.9221 -0.141482 27.6713 0.143333Z" fill="#FEFEFE"/>
<path d="M41.0962 16.3663C41.6556 16.646 41.6556 16.646 41.9353 17.2054C42.1628 19.0627 42.1628 19.0627 41.6319 19.9504C41.1783 20.4773 40.7006 20.9579 40.1982 21.4387C39.9213 21.7168 39.9213 21.7168 39.6388 22.0005C39.0291 22.61 38.412 23.2111 37.7943 23.8124C37.3688 24.2345 36.9437 24.6571 36.519 25.0801C35.4013 26.191 34.2768 27.2948 33.1509 28.3974C32.231 29.3005 31.3158 30.2083 30.4009 31.1164C28.5137 32.9895 26.6234 34.8595 24.7247 36.721C24.5489 36.8943 24.373 37.0676 24.1918 37.2462C22.7345 38.6708 22.7345 38.6708 21.6216 38.8828C20.6002 38.7315 20.4159 38.5961 19.6833 37.9289C19.4874 37.7509 19.2914 37.573 19.0896 37.3896C18.8752 37.1901 18.6608 36.9905 18.4399 36.785C18.0907 36.4635 18.0907 36.4635 17.7345 36.1355C16.9819 35.4341 16.2418 34.7212 15.503 34.0054C15.2462 33.7661 14.9895 33.5269 14.725 33.2804C12.6816 31.2871 12.6816 31.2871 12.6523 29.9409C12.8457 28.9532 12.8457 28.9532 13.2828 28.2364C14.2756 27.6509 14.8187 27.8337 15.9225 28.114C16.5564 28.6339 17.0599 29.1042 17.6008 29.7049C17.8917 30.0105 18.1831 30.3157 18.4748 30.6205C18.6129 30.7671 18.751 30.9138 18.8933 31.0649C19.6325 31.8423 20.3695 32.5163 21.237 33.1488C22.2731 33.1387 22.8214 32.4935 23.5174 31.787C23.6642 31.6337 23.811 31.4804 23.9622 31.3224C24.1197 31.1614 24.2773 31.0004 24.4396 30.8345C24.7812 30.485 25.122 30.1345 25.4619 29.7832C26.0006 29.2274 26.5425 28.6747 27.0855 28.123C28.6288 26.554 30.1682 24.9814 31.7004 23.4017C32.6382 22.4354 33.5813 21.4746 34.5281 20.5171C34.8875 20.1515 35.2448 19.7838 35.5999 19.414C36.0973 18.8964 36.6013 18.386 37.1073 17.8768C37.3241 17.646 37.3241 17.646 37.5453 17.4105C38.7382 16.2334 39.5066 16.196 41.0962 16.3663Z" fill="#F69B28"/>
</svg>
