<svg width="223" height="173" viewBox="0 0 223 173" fill="none" xmlns="http://www.w3.org/2000/svg">
<path d="M2.51817 157.66C-1.39851 137.897 -0.739067 117.499 4.44596 98.0299C9.63099 78.5607 19.204 60.5367 32.4315 45.3391C45.659 30.1414 62.1899 18.1734 80.7577 10.3521C99.3254 2.53067 119.437 -0.936493 139.552 0.216212C159.667 1.36892 179.251 7.1109 196.804 17.0022C214.356 26.8935 229.412 40.6716 240.817 57.2808C252.221 73.8901 259.673 92.8896 262.6 112.824C265.527 132.758 263.852 153.097 257.703 172.284L221.672 160.737C226.058 147.05 227.253 132.541 225.165 118.32C223.077 104.1 217.762 90.5463 209.626 78.6979C201.49 66.8494 190.75 57.0206 178.229 49.9645C165.707 42.9083 151.737 38.8122 137.387 37.9899C123.038 37.1676 108.691 39.641 95.4454 45.2205C82.1998 50.8 70.4072 59.3375 60.9712 70.179C51.5351 81.0205 44.7061 93.8782 41.0073 107.767C37.3084 121.656 36.838 136.207 39.632 150.305L2.51817 157.66Z" fill="url(#paint0_linear_1454_942)"/>
<defs>
<linearGradient id="paint0_linear_1454_942" x1="132" y1="7.45058e-07" x2="119.5" y2="143" gradientUnits="userSpaceOnUse">
<stop stop-color="#FFA30E"/>
<stop offset="1" stop-color="#3371B3"/>
</linearGradient>
</defs>
</svg>
