<svg width="222" height="173" viewBox="0 0 222 173" fill="none" xmlns="http://www.w3.org/2000/svg">
<path d="M-39.4818 15.3396C-43.3985 35.1031 -42.7391 55.5009 -37.554 74.9701C-32.369 94.4393 -22.796 112.463 -9.5685 127.661C3.65899 142.859 20.1899 154.827 38.7577 162.648C57.3254 170.469 77.4372 173.936 97.552 172.784C117.667 171.631 137.251 165.889 154.804 155.998C172.356 146.106 187.412 132.328 198.817 115.719C210.221 99.1099 217.673 80.1104 220.6 60.1763C223.527 40.2422 221.852 19.9026 215.703 0.715942L179.672 12.2627C184.058 25.9498 185.253 40.4594 183.165 54.6797C181.077 68.9 175.762 82.4537 167.626 94.3021C159.49 106.151 148.75 115.979 136.229 123.036C123.707 130.092 109.737 134.188 95.3874 135.01C81.0381 135.832 66.6911 133.359 53.4454 127.78C40.1998 122.2 28.4072 113.662 18.9712 102.821C9.53514 91.9795 2.70608 79.1218 -0.992744 65.2331C-4.69157 51.3444 -5.16199 36.7933 -2.36797 22.6947L-39.4818 15.3396Z" fill="url(#paint0_linear_1454_943)"/>
<defs>
<linearGradient id="paint0_linear_1454_943" x1="90" y1="173" x2="77.5" y2="30" gradientUnits="userSpaceOnUse">
<stop stop-color="#FFA30E"/>
<stop offset="1" stop-color="#2C5988"/>
</linearGradient>
</defs>
</svg>
