<svg width="34" height="34" viewBox="0 0 34 34" fill="none" xmlns="http://www.w3.org/2000/svg">
<path d="M24.4479 9.55208L9.55208 24.4479M12.2604 14.9688V9.55208M9.55208 12.2604H14.9688M19.0312 21.7396H24.4479M11.3125 29.1875H22.6875C24.9628 29.1875 26.1003 29.1875 26.9694 28.7447C27.7338 28.3552 28.3552 27.7338 28.7447 26.9694C29.1875 26.1003 29.1875 24.9628 29.1875 22.6875V11.3125C29.1875 9.03728 29.1875 7.89968 28.7447 7.03067C28.3552 6.26625 27.7338 5.64477 26.9694 5.25529C26.1003 4.8125 24.9628 4.8125 22.6875 4.8125H11.3125C9.03728 4.8125 7.89968 4.8125 7.03067 5.25529C6.26625 5.64477 5.64477 6.26625 5.25529 7.03067C4.8125 7.89968 4.8125 9.03728 4.8125 11.3125V22.6875C4.8125 24.9628 4.8125 26.1003 5.25529 26.9694C5.64477 27.7338 6.26625 28.3552 7.03067 28.7447C7.89968 29.1875 9.03728 29.1875 11.3125 29.1875Z" stroke="white" stroke-width="2" stroke-linecap="round" stroke-linejoin="round"/>
</svg>
